HIERARCHY
ROOT pelvis
{
  OFFSET 0 100 0
  CHANNELS 6 Xposition Yposition Zposition Zrotation Xrotation Yrotation
  JOINT pelvis_right_femur
  {
    OFFSET -10.78128 -3.44521 -0.5502486
    CHANNELS 3 Zrotation Xrotation Yrotation
    JOINT right_femur_tibia
    {
      OFFSET -0.8047443 -44.0398 -0.1307829
      CHANNELS 3 Zrotation Xrotation Yrotation
      JOINT right_tibia_foot
      {
        OFFSET 3.006224 -47.83518 -5
        CHANNELS 3 Zrotation Xrotation Yrotation
        End Site
        {
          OFFSET 0 -5 15
        }
      }
    }
  }
  JOINT pelvis_left_femur
  {
    OFFSET 10.78128 -3.44521 -0.5502486
    CHANNELS 3 Zrotation Xrotation Yrotation
    JOINT left_femur_tibia
    {
      OFFSET 0.8047443 -44.0398 -0.1307829
      CHANNELS 3 Zrotation Xrotation Yrotation
      JOINT left_tibia_foot
      {
        OFFSET -4.370144 -48.10324 -4.275266
        CHANNELS 3 Zrotation Xrotation Yrotation
        End Site
        {
          OFFSET 0 -5 15
        }
      }
    }
  }
  JOINT pelvis_spine1
  {
    OFFSET 0 6.468898 -3.129235
    CHANNELS 3 Zrotation Xrotation Yrotation
    JOINT spine1
    {
      OFFSET 0 23.15396 4.99043
      CHANNELS 3 Zrotation Xrotation Yrotation
      JOINT spine2
      {
        OFFSET 0 20.79997 -5.064912
        CHANNELS 3 Zrotation Xrotation Yrotation
        JOINT neck
        {
          OFFSET 0 14.38658 9.616178
          CHANNELS 3 Zrotation Xrotation Yrotation
          End Site
          {
            OFFSET 0 20 0
          }
        }
      }
      JOINT right_manubrium
      {
        OFFSET -5.722621 16.35077 3.967754
        CHANNELS 3 Zrotation Xrotation Yrotation
        JOINT right_clavicle
        {
          OFFSET -13.16364 1.694482 -4.693211
          CHANNELS 3 Zrotation Xrotation Yrotation
          JOINT right_humerus
          {
            OFFSET -28.5034 -0.3100689 -2.792744
            CHANNELS 3 Zrotation Xrotation Yrotation
            JOINT right_radius
            {
              OFFSET -25.15693 0.02248979 -1.271978
              CHANNELS 3 Zrotation Xrotation Yrotation
              End Site
              {
                OFFSET -15 0 0
              }
            }
          }
        }
      }
      JOINT left_manubrium
      {
        OFFSET 5.722621 16.35077 3.967754
        CHANNELS 3 Zrotation Xrotation Yrotation
        JOINT left_clavicle
        {
          OFFSET 13.16364 1.694482 -4.693211
          CHANNELS 3 Zrotation Xrotation Yrotation
          JOINT left_humerus
          {
            OFFSET 29.39168 -1.063119 -2.237045
            CHANNELS 3 Zrotation Xrotation Yrotation
            JOINT left_radius
            {
              OFFSET 24.59957 -0.9528479 0.9047498
              CHANNELS 3 Zrotation Xrotation Yrotation
              End Site
              {
                OFFSET 15 -0 -0
              }
            }
          }
        }
      }
    }
  }
}
MOTION
Frames: 13
Frame Time: 0.0416666666667
-828.3432 97.9688 -395.2404 24.0522 8.456726 102.0564 5.092616 6.932522 -1.31447 -0 23.7643 -0 -7.678232 -3.579888 -11.42716 -0.9905342 5.261094 -4.178866 -0 29.74926 -0 -7.413352 -9.327258 8.767991 5.366087 -4.894889 7.998571 -6.854954 17.89721 -2.834333 6.38871 23.98812 -5.21403 -4.28055 -8.222357 3.182011 -17.92892 -32.85982 7.297843 113.9448 -17.83555 -13.84353 -0 0 24.98409 -29.8521 15.3929 16.35158 -2.910238 -24.91276 -18.74293 -90.1615 34.1494 31.54624 0 0 -43.84196 -24.79209 10.86645 49.42667
-821.7442 97.97991 -396.8788 24.1283 8.224644 101.5318 5.092616 6.932522 -1.31447 -0 23.7643 -0 -7.678232 -3.579888 -11.42716 -0.9905342 5.261094 -4.178866 -0 29.74926 -0 -7.413352 -9.327258 8.767991 5.366087 -4.894889 7.998571 -6.854954 17.89721 -2.834333 6.38871 23.98812 -5.21403 -4.28055 -8.222357 3.182011 -17.92892 -32.85982 7.297843 113.9448 -17.83555 -13.84353 -0 0 24.98409 -29.8521 15.3929 16.35158 -2.910238 -24.91276 -18.74293 -90.1615 34.1494 31.54624 0 0 -43.84196 -24.79209 10.86645 49.42667
-815.1293 97.99102 -398.4517 24.20221 7.991883 101.0078 5.092616 6.932522 -1.31447 -0 23.7643 -0 -7.678232 -3.579888 -11.42716 -0.9905342 5.261094 -4.178866 -0 29.74926 -0 -7.413352 -9.327258 8.767991 5.366087 -4.894889 7.998571 -6.854954 17.89721 -2.834333 6.38871 23.98812 -5.21403 -4.28055 -8.222357 3.182011 -17.92892 -32.85982 7.297843 113.9448 -17.83555 -13.84353 -0 0 24.98409 -29.8521 15.3929 16.35158 -2.910238 -24.91276 -18.74293 -90.1615 34.1494 31.54624 0 0 -43.84196 -24.79209 10.86645 49.42667
-808.499 98.00212 -399.9588 24.27392 7.758462 100.4844 5.092616 6.932522 -1.31447 -0 23.7643 -0 -7.678232 -3.579888 -11.42716 -0.9905342 5.261094 -4.178866 -0 29.74926 -0 -7.413352 -9.327258 8.767991 5.366087 -4.894889 7.998571 -6.854954 17.89721 -2.834333 6.38871 23.98812 -5.21403 -4.28055 -8.222357 3.182011 -17.92892 -32.85982 7.297843 113.9448 -17.83555 -13.84353 -0 0 24.98409 -29.8521 15.3929 16.35158 -2.910238 -24.91276 -18.74293 -90.1615 34.1494 31.54624 0 0 -43.84196 -24.79209 10.86645 49.42667
-801.8542 98.01323 -401.4001 24.34344 7.524403 99.96163 5.092616 6.932522 -1.31447 -0 23.7643 -0 -7.678232 -3.579888 -11.42716 -0.9905342 5.261094 -4.178866 -0 29.74926 -0 -7.413352 -9.327258 8.767991 5.366087 -4.894889 7.998571 -6.854954 17.89721 -2.834333 6.38871 23.98812 -5.21403 -4.28055 -8.222357 3.182011 -17.92892 -32.85982 7.297843 113.9448 -17.83555 -13.84353 -0 0 24.98409 -29.8521 15.3929 16.35158 -2.910238 -24.91276 -18.74293 -90.1615 34.1494 31.54624 0 0 -43.84196 -24.79209 10.86645 49.42667
-795.1953 98.02434 -402.7754 24.41077 7.289725 99.43938 5.092616 6.932522 -1.31447 -0 23.7643 -0 -7.678232 -3.579888 -11.42716 -0.9905342 5.261094 -4.178866 -0 29.74926 -0 -7.413352 -9.327258 8.767991 5.366087 -4.894889 7.998571 -6.854954 17.89721 -2.834333 6.38871 23.98812 -5.21403 -4.28055 -8.222357 3.182011 -17.92892 -32.85982 7.297843 113.9448 -17.83555 -13.84353 -0 0 24.98409 -29.8521 15.3929 16.35158 -2.910238 -24.91276 -18.74293 -90.1615 34.1494 31.54624 0 0 -43.84196 -24.79209 10.86645 49.42667
-788.5232 98.03545 -404.0845 24.4759 7.054449 98.91768 5.092616 6.932522 -1.31447 -0 23.7643 -0 -7.678232 -3.579888 -11.42716 -0.9905342 5.261094 -4.178866 -0 29.74926 -0 -7.413352 -9.327258 8.767991 5.366087 -4.894889 7.998571 -6.854954 17.89721 -2.834333 6.38871 23.98812 -5.21403 -4.28055 -8.222357 3.182011 -17.92892 -32.85982 7.297843 113.9448 -17.83555 -13.84353 -0 0 24.98409 -29.8521 15.3929 16.35158 -2.910238 -24.91276 -18.74293 -90.1615 34.1494 31.54624 0 0 -43.84196 -24.79209 10.86645 49.42667
-781.8384 98.04655 -405.3273 24.53885 6.818594 98.39651 5.092616 6.932522 -1.31447 -0 23.7643 -0 -7.678232 -3.579888 -11.42716 -0.9905342 5.261094 -4.178866 -0 29.74926 -0 -7.413352 -9.327258 8.767991 5.366087 -4.894889 7.998571 -6.854954 17.89721 -2.834333 6.38871 23.98812 -5.21403 -4.28055 -8.222357 3.182011 -17.92892 -32.85982 7.297843 113.9448 -17.83555 -13.84353 -0 0 24.98409 -29.8521 15.3929 16.35158 -2.910238 -24.91276 -18.74293 -90.1615 34.1494 31.54624 0 0 -43.84196 -24.79209 10.86645 49.42667
-775.1415 98.05766 -406.5038 24.5996 6.582182 97.87585 5.092616 6.932522 -1.31447 -0 23.7643 -0 -7.678232 -3.579888 -11.42716 -0.9905342 5.261094 -4.178866 -0 29.74926 -0 -7.413352 -9.327258 8.767991 5.366087 -4.894889 7.998571 -6.854954 17.89721 -2.834333 6.38871 23.98812 -5.21403 -4.28055 -8.222357 3.182011 -17.92892 -32.85982 7.297843 113.9448 -17.83555 -13.84353 -0 0 24.98409 -29.8521 15.3929 16.35158 -2.910238 -24.91276 -18.74293 -90.1615 34.1494 31.54624 0 0 -43.84196 -24.79209 10.86645 49.42667
-768.4334 98.06877 -407.6137 24.65815 6.34523 97.35569 5.092616 6.932522 -1.31447 -0 23.7643 -0 -7.678232 -3.579888 -11.42716 -0.9905342 5.261094 -4.178866 -0 29.74926 -0 -7.413352 -9.327258 8.767991 5.366087 -4.894889 7.998571 -6.854954 17.89721 -2.834333 6.38871 23.98812 -5.21403 -4.28055 -8.222357 3.182011 -17.92892 -32.85982 7.297843 113.9448 -17.83555 -13.84353 -0 0 24.98409 -29.8521 15.3929 16.35158 -2.910238 -24.91276 -18.74293 -90.1615 34.1494 31.54624 0 0 -43.84196 -24.79209 10.86645 49.42667
-761.7145 98.07987 -408.657 24.71452 6.107761 96.83601 5.092616 6.932522 -1.31447 -0 23.7643 -0 -7.678232 -3.579888 -11.42716 -0.9905342 5.261094 -4.178866 -0 29.74926 -0 -7.413352 -9.327258 8.767991 5.366087 -4.894889 7.998571 -6.854954 17.89721 -2.834333 6.38871 23.98812 -5.21403 -4.28055 -8.222357 3.182011 -17.92892 -32.85982 7.297843 113.9448 -17.83555 -13.84353 -0 0 24.98409 -29.8521 15.3929 16.35158 -2.910238 -24.91276 -18.74293 -90.1615 34.1494 31.54624 0 0 -43.84196 -24.79209 10.86645 49.42667
-754.9856 98.09098 -409.6336 24.76869 5.869793 96.31679 5.092616 6.932522 -1.31447 -0 23.7643 -0 -7.678232 -3.579888 -11.42716 -0.9905342 5.261094 -4.178866 -0 29.74926 -0 -7.413352 -9.327258 8.767991 5.366087 -4.894889 7.998571 -6.854954 17.89721 -2.834333 6.38871 23.98812 -5.21403 -4.28055 -8.222357 3.182011 -17.92892 -32.85982 7.297843 113.9448 -17.83555 -13.84353 -0 0 24.98409 -29.8521 15.3929 16.35158 -2.910238 -24.91276 -18.74293 -90.1615 34.1494 31.54624 0 0 -43.84196 -24.79209 10.86645 49.42667
-748.2474 98.10209 -410.5434 24.82067 5.631347 95.79801 5.092616 6.932522 -1.31447 -0 23.7643 -0 -7.678232 -3.579888 -11.42716 -0.9905342 5.261094 -4.178866 -0 29.74926 -0 -7.413352 -9.327258 8.767991 5.366087 -4.894889 7.998571 -6.854954 17.89721 -2.834333 6.38871 23.98812 -5.21403 -4.28055 -8.222357 3.182011 -17.92892 -32.85982 7.297843 113.9448 -17.83555 -13.84353 -0 0 24.98409 -29.8521 15.3929 16.35158 -2.910238 -24.91276 -18.74293 -90.1615 34.1494 31.54624 0 0 -43.84196 -24.79209 10.86645 49.42667
